<svg xmlns="http://www.w3.org/2000/svg" viewBox="0 0 430.76 420.65"><defs><style>.cls-1,.cls-10,.cls-8{fill:none;}.cls-1,.cls-11,.cls-12,.cls-13,.cls-15,.cls-16,.cls-9{stroke:#303030;}.cls-1,.cls-10,.cls-11,.cls-12,.cls-13,.cls-15,.cls-2,.cls-3,.cls-8,.cls-9{stroke-linecap:round;stroke-linejoin:round;}.cls-1,.cls-10,.cls-11,.cls-12,.cls-13,.cls-15,.cls-16,.cls-2,.cls-3,.cls-8,.cls-9{stroke-width:1.5px;}.cls-11,.cls-16,.cls-2,.cls-4{fill:#00826f;}.cls-2,.cls-3,.cls-8{stroke:#00826f;}.cls-15,.cls-3,.cls-5{fill:#fff;}.cls-6,.cls-9{fill:#303030;}.cls-13,.cls-7{fill:#ff95fb;}.cls-10{stroke:#fff;}.cls-12,.cls-18{fill:#f55571;}.cls-14{fill:#ad6163;}.cls-16{stroke-miterlimit:10;}.cls-17{fill:#d48983;}</style></defs><g id="Floor"><line id="Floor-2" data-name="Floor" class="cls-1" x1="248.86" y1="419.9" x2="0.75" y2="419.9"/></g><g id="ATM_machine" data-name="ATM machine"><g id="ATM"><polygon class="cls-2" points="203 419.9 22.31 419.9 22.31 4.22 191.49 4.22 203 419.9"/><path class="cls-3" d="M262.88,461.87c0-272.11.07-342.32-11.5-415.67H82.2c11.57,73.35,11.5,143.56,11.5,415.67Z" transform="translate(-38.71 -41.97)"/><path class="cls-4" d="M244.47,76.55c-.76-6.61-1.58-13.06-2.5-19.42H94.87c.89,6.36,1.69,12.81,2.42,19.42Z" transform="translate(-38.71 -41.97)"/><path class="cls-5" d="M154.16,60.6l-5,12.91h3.33l.8-2.26h4.8l.78,2.26h3.41l-5-12.91Zm0,8.07,1.52-4.31,1.48,4.31Zm8-5.27h3.95V73.51h3.26V63.4h4V60.6H162.21Zm24.68-2.8-4.38,6.64-4.4-6.64h-2.35V73.51H179v-6.6l2.44,3.69h2.11L186,66.9v6.61h3.22V60.6Z" transform="translate(-38.71 -41.97)"/><path class="cls-3" d="M104,222.81H229c-.75-62-2.34-102-5.67-135.67H98.4C101.66,121.05,103.21,161.25,104,222.81Z" transform="translate(-38.71 -41.97)"/><path class="cls-2" d="M245.6,87.14H223.29c3.33,33.67,4.92,73.65,5.67,135.67l22.61,30.63-.14-10.87,0,.26C250.83,169.15,249.28,124.3,245.6,87.14Z" transform="translate(-38.71 -41.97)"/><path class="cls-3" d="M184.85,222.81c-.75-62-2.34-102-5.66-135.67" transform="translate(-38.71 -41.97)"/><path class="cls-6" d="M103,185h69.8c.19-22.66-.25-43-1.69-59.77H101.09C102,142.59,102.59,162.14,103,185Z" transform="translate(-38.71 -41.97)"/><path class="cls-7" d="M103,180.62h65.4a422.49,422.49,0,0,0-1.45-51H101.31C102,144.72,102.54,161.5,103,180.62Z" transform="translate(-38.71 -41.97)"/><polyline class="cls-8" points="190.25 180.84 212.86 211.47 65.53 211.47"/><path class="cls-3" d="M100.38,111.65h125L245.6,87.14H98.39C99.14,94.92,99.8,103,100.38,111.65Z" transform="translate(-38.71 -41.97)"/><path class="cls-8" d="M252,450.94H104.64c0-212.46-.06-299.46-6.25-363.8H245.6C251.9,150.69,252,236.71,252,450.94Z" transform="translate(-38.71 -41.97)"/><rect class="cls-6" x="65.39" y="149.22" width="60.49" height="21.43"/><path class="cls-4" d="M160.12,212.63h-56V191.2h52.29C159.77,198.46,160.12,205.35,160.12,212.63Z" transform="translate(-38.71 -41.97)"/><path class="cls-3" d="M221.42,214.41h-28c-.48-43.17-1.49-71-3.6-94.45h28C219.93,143.4,220.94,171.24,221.42,214.41Z" transform="translate(-38.71 -41.97)"/><rect class="cls-9" x="157.18" y="99.73" width="19.47" height="2.33"/><rect class="cls-9" x="158.59" y="135.6" width="19.47" height="2.33"/><path class="cls-2" d="M208.24,159.81c.14,3.25.26,6.66.37,10.25h-4.79c-.1-3.59-.22-7-.36-10.25h-3.64l5.78-9.22,6.82,9.22Z" transform="translate(-38.71 -41.97)"/><line class="cls-10" x1="122.25" y1="111.23" x2="93.6" y2="131.61"/><line class="cls-10" x1="98.26" y1="95.67" x2="69.61" y2="116.05"/><line class="cls-10" x1="116.19" y1="99.73" x2="73.78" y2="129.89"/><polygon class="cls-1" points="148.8 185.67 106.13 185.67 120.79 205.53 163.46 205.53 148.8 185.67"/><polygon class="cls-11" points="153.68 192.29 143.7 192.29 138.81 185.67 148.79 185.67 153.68 192.29"/><polygon class="cls-12" points="158.57 198.91 148.58 198.91 143.7 192.29 153.68 192.29 158.57 198.91"/><polygon class="cls-13" points="163.46 205.53 153.47 205.53 148.59 198.91 158.57 198.91 163.46 205.53"/><polygon class="cls-7" points="90.26 190.3 78.62 190.3 84.57 198.35 96.22 198.35 90.26 190.3"/><polygon class="cls-6" points="78.62 190.3 77.53 193.95 83.48 202.01 96.22 202.01 96.22 198.35 84.57 198.35 78.62 190.3"/><line class="cls-1" x1="158.59" y1="198.91" x2="158.57" y2="198.91"/><rect class="cls-3" x="82.21" y="237.3" width="115.65" height="155.88"/></g></g><g id="Character"><g id="Character-2" data-name="Character"><path class="cls-14" d="M259,171.42a15.19,15.19,0,0,0,0,3c.29,2.22,3.52,1.92,4.27-.12a2.37,2.37,0,0,0,3.74.59c.7-.57,1.13-1.68,2-2,1.26-.52,2.06.45,3.1,1.1a14.16,14.16,0,0,0,7.12,2.51c2.16.18,3.05-.64,5.2-.95,2.61-.38,6.36.9,12.34,2.61,6.82,1.94,15,4.43,21,5.92s9.12.89,13.53-3.46c10.2-10.06,30.08-30,30.13-37.6.06-8.19-22.28-5.83-22.28-5.83C332.2,144.56,316,162.64,316,162.64l-28.36-1.2c-4.19-.18-6.87-1.76-10.42-3.35-2.81-1.25-5.35-2.65-8.44-2.62-1.41,0-6.67,2.27-8,3-1.06.6-2.33,1.08-4,1.84-1,.49-3.21,1.34-3.42,2.93s2.47,1.34,3.19,1.49c1,.21,3.91-.52,4.05-.27s-.54,1-.64,1.24a8.06,8.06,0,0,0-.38,1.27A43.75,43.75,0,0,0,259,171.42Z" transform="translate(-38.71 -41.97)"/><path class="cls-15" d="M354,127.6c-6.77,1.47-8.18.69-16.28,9.5s-16.49,18.53-16.49,18.53,1.29,4.05,6.1,9.8,13.4,8.61,13.4,8.61l13.6-14.15Z" transform="translate(-38.71 -41.97)"/><path class="cls-6" d="M267.51,166.46c-.68.37-1.44.56-2.1,1a3.06,3.06,0,0,0-1.44,1.93,32.21,32.21,0,0,1-1.46,5,.78.78,0,0,0,.27,1,.76.76,0,0,0,1-.27,27.36,27.36,0,0,0,1.5-5,2,2,0,0,1,.89-1.43c.66-.38,1.4-.57,2.07-.94.84-.46.09-1.76-.76-1.29Z" transform="translate(-38.71 -41.97)"/><path class="cls-6" d="M268.06,161.9a5.89,5.89,0,0,0-3.39.35c-1.75.62-3.43,1.46-5.13,2.21a.75.75,0,0,0,.76,1.3c1.55-.69,3.09-1.46,4.69-2a9.34,9.34,0,0,1,1.57-.43c-.15,0,.17,0,.23,0h.35l.3,0c-.19,0,.17,0,.22.06a.75.75,0,0,0,.4-1.45Z" transform="translate(-38.71 -41.97)"/><rect class="cls-16" x="239.43" y="165.02" width="37.24" height="3.75" rx="1.78" transform="translate(-29.73 -55.1) rotate(2.96)"/><path class="cls-14" d="M267.67,174.75c2.91-.47,4.79.91,7.95-.05a33.47,33.47,0,0,0,4.55-1.73l1.25,7.65c-2,1-5.41.48-7.2.34a31,31,0,0,1-3.68-.82c-1-.26-3-1-4.34-1.45C264.36,178.08,264.48,175.27,267.67,174.75Z" transform="translate(-38.71 -41.97)"/><path class="cls-1" d="M281.42,180.62c-2,1-5.41.48-7.2.34a31,31,0,0,1-3.68-.82c-1-.26-3-1-4.34-1.45-1.84-.61-1.72-3.42,1.47-3.94,2.91-.47,4.79.91,7.95-.05a33.47,33.47,0,0,0,4.55-1.73" transform="translate(-38.71 -41.97)"/><g id="Legs"><g id="Leg"><path class="cls-17" d="M346.49,200.54h56.16c-1,29.13-1.7,39.7-15.21,76.24,4.42,5.39,13.66,13.88,19.85,24.58,11.52,19.94,25.43,43.1,25.43,43.1,9.83,14.93-9.5,29.5-21,19.88,0,0-38-34.36-52.18-48.51s-22.06-27.68-19.6-53.18C342.52,235.46,346.49,200.54,346.49,200.54Z" transform="translate(-38.71 -41.97)"/><path class="cls-6" d="M442.45,351.48s-3.91-5.1-5.46-7.22c-3.37-4.64-4.13-5.49-7.09-4.22l1.87,3.13s1,5.16-7.26,12.7-13.77,7.18-13.77,7.18l-3.48-3.16c-1.13,1.59-1.27,2.66,2.21,6.23,4.15,4.24,10,9.65,10,9.65a21.06,21.06,0,0,0,21-1.94C451.32,366.46,442.45,351.48,442.45,351.48Z" transform="translate(-38.71 -41.97)"/><path class="cls-6" d="M429.23,327.74a73.41,73.41,0,0,1-36.8,31.34s-32-37-45.38-52.28-18.89-26.31-17.37-42.68c1.63-17.67,6.92-63.58,6.92-63.58h68s3.9,24-5.07,49.26c-5.25,14.78-9.34,27.36-9.34,27.36A361.23,361.23,0,0,1,429.23,327.74Z" transform="translate(-38.71 -41.97)"/><path class="cls-4" d="M454,356.14c-5.12-3.46-6.95-5-9.88-7-1.27-.87-2.1-1.15-3.48,0l1.82,2.35a21.52,21.52,0,0,1,.37,4.36c-.08,3-1.74,8.92-7.76,8.44-16.62-1.33-18,6.77-18.27,10.4-.2,2.79.49,7-3.32,15.49-2.15,4.81-5.39,10-8.31,14.93-4.47,7.58-3.4,11.32-.59,14.09,1,.94,2.48,2.26,8.16-1A60.23,60.23,0,0,0,427,406.81s6.86-7.3,13.29-13.62c5.7-5.61,9.86-9.52,14.72-14.47s8.67-10.66,8.85-14.66C463.86,364.06,457.68,358.63,454,356.14Z" transform="translate(-38.71 -41.97)"/><path class="cls-15" d="M441.51,360.8a6.36,6.36,0,0,1-6.45,3.48c-1.74-.14-3.34-.2-4.81-.2,1.84.54-.75,14.27.2,15.38s11.06-18.66,11.06-18.66Z" transform="translate(-38.71 -41.97)"/><path class="cls-15" d="M411.56,426.32c5.77.42,14.66-9,20.92-15s10.09-9.91,13.6-13.36L460,384.27c6.7-6.58,9-11.08,8.7-13.8s-1.84-4-4.84-6.41c-.52,2.94-4,9.7-8.85,14.66s-8.24,8-14.72,14.47-9,9.39-13.29,13.62a69.67,69.67,0,0,1-14.27,11.36c-5.67,3.28-7.36,2.1-8.15,1C404.86,421,407.89,426.05,411.56,426.32Z" transform="translate(-38.71 -41.97)"/></g><g id="Leg-2" data-name="Leg"><path class="cls-17" d="M350.29,206.43h49c7.2,14.8,8.63,23.89,5.93,49.44-2.82,26.72-3.47,54.49-3.47,54.49s2,24.4,2,45.92c0,22.34-1.5,59.52-1.5,59.52L372.48,415s-10.66-68.88-12.24-85.74c-3.7-39.45-3.43-89.77-3.43-89.77Z" transform="translate(-38.71 -41.97)"/><path class="cls-6" d="M403.31,433.38c.61-4.27,1.69-21.91,1.77-23.41.21-3.86,1.41-6.87-2.34-7.42l-.1,3.3s-1,5.26-15.52,5.2c-14.73-.06-16-4.71-16-4.71l-.63-3.79c-3.67,1.14-1.91,6.27-1.46,7.57a99.44,99.44,0,0,1,2.84,16.6C377.82,445.89,401,459.15,403.31,433.38Z" transform="translate(-38.71 -41.97)"/><path class="cls-18" d="M404.64,200.54H348.71c-.27,1.76-1.24,9.94-1.24,9.94-2,20.92-.53,26.35,1,33,1.43,6.17,4.12,10.43,5.82,30,2.22,25.43,2.25,35.55,4,58.57,1.78,23.51,4.52,52.07,4.52,52.07,16.94,4.5,29.3,4.15,42.92-.26,0,0,1.67-27.55,1-44.4-.42-10-1.22-16.6-1.74-23.11-.48-6-.47-9,0-18.92.36-7.57.69-21.05,2.44-38.37,3.29-32.68,1.49-41.48,0-48.2C405.2,200.78,404.64,200.54,404.64,200.54Z" transform="translate(-38.71 -41.97)"/><path class="cls-1" d="M404.64,206.43c-14.16,5-34.66,10.43-57.79,2.25" transform="translate(-38.71 -41.97)"/><path class="cls-1" d="M391.59,200.54l1.69,9.41s4.66,13,3.19,36.42c-1.43,22.93-4.39,56.51-4.81,64.74s4.6,18.82,2.63,66" transform="translate(-38.71 -41.97)"/><path class="cls-1" d="M396.47,246.37c-10.53.89-14.91-5.23-16.43-34" transform="translate(-38.71 -41.97)"/><path class="cls-1" d="M406.22,374.67c-12.4,4.22-33.31,3.75-44.65-.49" transform="translate(-38.71 -41.97)"/><path class="cls-4" d="M409.52,435.2c-1.34-6.65-1.6-9.27-2.34-13.08-.33-1.67-.84-2.62-2.79-2.79l-.32,3.34a23.2,23.2,0,0,1-3.06,3.69c-2.39,2.31-8.22,5.64-12.56.63-12-13.82-19.3-8.55-22.3-5.91-2.3,2-5,5.82-14.51,9.57-5.38,2.11-11.88,3.65-18,5.28-9.33,2.5-11.37,6.25-11.29,10.58,0,1.47.2,3.68,7.16,5.48a66.48,66.48,0,0,0,19.91,2.09s11-.44,20.87-.44c8.78,0,15,.13,22.66,0s15-1.67,18.19-4.66C411.15,449,410.49,440,409.52,435.2Z" transform="translate(-38.71 -41.97)"/><path class="cls-15" d="M396.17,429.23a7,7,0,0,1-7.72-2.24c-1.26-1.45-2.46-2.72-3.61-3.85,1,1.84-11.57,10.59-11.67,12.19s23-6.1,23-6.1Z" transform="translate(-38.71 -41.97)"/><path class="cls-15" d="M322.34,457.46c4.19,4.77,18.37,4.25,27.91,4.36s15.51,0,20.92,0h21.42c10.3,0,15.53-1.78,17.42-4.1s1.6-4.51,1.14-8.74c-2.67,1.9-10.57,4.53-18.19,4.66s-12.62-.07-22.66,0-14.25.44-20.87.44A76.82,76.82,0,0,1,329.52,452c-7-1.8-7.37-4-7.16-5.48C321.22,448.12,319.67,454.43,322.34,457.46Z" transform="translate(-38.71 -41.97)"/></g></g><g id="Head"><path class="cls-6" d="M405.7,87.67c2.65,5,2.8,10.91,2.24,16.52-.6,6-2.56,12.27-1,18.21.75,2.89,2.42,5.6,2.88,8.57.71,4.68-.09,9-4.38,11.55s-10.17,1.71-14.65.18c-4.78-1.64-9.91-5-12.08-9.72a16.19,16.19,0,0,1-1.2-7.74,43.26,43.26,0,0,1,.38-5.09,170.34,170.34,0,0,1,3.66-16.79c1.87-6.93,3.22-20.21,11.22-23.22C397.62,78.31,403.68,83.88,405.7,87.67Z" transform="translate(-38.71 -41.97)"/><path class="cls-4" d="M396.86,84c-.22,3.42-3.16,4.11-5.7,2.26-2.11-1.54-5.4-7.36-1.63-9,1.44-.63,4.17.54,5.19,1.57A6.82,6.82,0,0,1,396.86,84Z" transform="translate(-38.71 -41.97)"/><path class="cls-6" d="M351.9,91.77c-1.16,11.46,11.12,21.53,23.16,22.1s22.25-8.28,22.8-19.78-9.44-21.38-21.43-22.63C364.15,70.18,353.61,74.94,351.9,91.77Z" transform="translate(-38.71 -41.97)"/><path class="cls-17" d="M386,79.13C385.06,93.49,392.3,97,392.3,97a25.26,25.26,0,0,0-2.45,5.74A9.61,9.61,0,0,1,396.7,99c2.71-.09,5.54,1.61,6.12,4.14s-1.21,5.11-3.65,6.16a9.79,9.79,0,0,1-8.58-.66h0a13.84,13.84,0,0,1-6.16,5.8l1.22,10.23,5.88,2.91s-9.47,32.11-37.07,28.46c-27.08-3.58,6.16-29.7,6.16-29.7l7.32-1.34.51-8.3C364,116.06,351,111.35,354,94.25a24.79,24.79,0,0,1,3.63-9.2h0C363.74,76,375.17,74.74,386,79.13Z" transform="translate(-38.71 -41.97)"/><path class="cls-1" d="M399.52,103.25a5,5,0,0,0-3.68-.43,4.7,4.7,0,0,0-3.32,3" transform="translate(-38.71 -41.97)"/><path class="cls-1" d="M396.86,104.86a3.63,3.63,0,0,0-3.63-.35" transform="translate(-38.71 -41.97)"/><path class="cls-6" d="M378,116.28a21.32,21.32,0,0,1-9.51.45l-.18,2.93C370.48,119.81,373.79,119.85,378,116.28Z" transform="translate(-38.71 -41.97)"/><path class="cls-7" d="M373.66,104.21c-1.72-.11-4.46.23-5,1.49,0,0,0,.43.26.57a5.67,5.67,0,0,0,3.63.35,4,4,0,0,0,3-2C375.11,104.16,373.66,104.21,373.66,104.21Z" transform="translate(-38.71 -41.97)"/><path class="cls-6" d="M373.66,104.21c-1.72-.11-4.46.23-5,1.49a2.34,2.34,0,0,0-.95-1.65,6.91,6.91,0,0,0,1.85-.44,4.07,4.07,0,0,1,2.94,0A6.15,6.15,0,0,1,373.66,104.21Z" transform="translate(-38.71 -41.97)"/><path class="cls-5" d="M372.5,103.64a4.38,4.38,0,0,1,.7.4c.24.18.31.46,0,.65a.85.85,0,0,1-.41.15,7.09,7.09,0,0,1-2.75-.16.9.9,0,0,1-.58-.27.5.5,0,0,1,0-.56.84.84,0,0,1,.49-.31,3.09,3.09,0,0,1,1.41-.2A3.32,3.32,0,0,1,372.5,103.64Z" transform="translate(-38.71 -41.97)"/><path class="cls-1" d="M376.66,104.59a8.74,8.74,0,0,1-2-.16c-1.26-.29-2.33-1.13-3.68-1.08a13.75,13.75,0,0,0-2.41.55,5.62,5.62,0,0,1-2.58-.06" transform="translate(-38.71 -41.97)"/><path class="cls-6" d="M375.71,103.83l.12.09c-.2-.12-.05,0,0,0l.19.19a.52.52,0,0,1,.1.11l.05.06-.05-.06a3.16,3.16,0,0,1,.28.45c0,.06.08.23,0,0l.06.14a3.5,3.5,0,0,1,.13.56l0-.2a2.72,2.72,0,0,1,0,.57.75.75,0,1,0,1.5,0,3.56,3.56,0,0,0-1.61-3.2.74.74,0,0,0-1,.27.76.76,0,0,0,.27,1Z" transform="translate(-38.71 -41.97)"/><path class="cls-1" d="M367.38,104.05a1.58,1.58,0,0,1,1.27,1.46,2.16,2.16,0,0,0,.07.51c.08.17.18.27.52.41,1.38.56,4.91.64,6.28-1.78" transform="translate(-38.71 -41.97)"/><path class="cls-14" d="M355.8,96.9a.92.92,0,1,0,.88-.91A.89.89,0,0,0,355.8,96.9Z" transform="translate(-38.71 -41.97)"/><path class="cls-14" d="M385.17,98.83a.91.91,0,1,0,.88-.91A.89.89,0,0,0,385.17,98.83Z" transform="translate(-38.71 -41.97)"/><path class="cls-14" d="M361.48,98.74a.91.91,0,1,0,.88-.91A.88.88,0,0,0,361.48,98.74Z" transform="translate(-38.71 -41.97)"/><path class="cls-14" d="M378.43,100.06a.92.92,0,1,0,.88-.91A.9.9,0,0,0,378.43,100.06Z" transform="translate(-38.71 -41.97)"/><path class="cls-14" d="M357.5,100.54a.92.92,0,1,0,.88-.9A.89.89,0,0,0,357.5,100.54Z" transform="translate(-38.71 -41.97)"/><path class="cls-14" d="M382.61,102.55a.92.92,0,1,0,.88-.91A.9.9,0,0,0,382.61,102.55Z" transform="translate(-38.71 -41.97)"/><path class="cls-5" d="M384.17,94.27c-1.34-4.07-7-3.09-8.67.24C376.18,97,381.81,97.7,384.17,94.27Z" transform="translate(-38.71 -41.97)"/><path class="cls-6" d="M376.89,96.12a2.47,2.47,0,0,0,3.47-.07,2.43,2.43,0,0,0,.08-3.45,2.47,2.47,0,0,0-3.47.07A2.43,2.43,0,0,0,376.89,96.12Z" transform="translate(-38.71 -41.97)"/><polygon class="cls-5" points="341.88 50.51 339.96 52.39 342.63 51.66 341.88 50.51"/><path class="cls-1" d="M375.5,94.51c1.87-3.61,7.38-4.15,8.67-.24" transform="translate(-38.71 -41.97)"/><path class="cls-1" d="M385.48,92.45a1.88,1.88,0,0,1-1.69,1" transform="translate(-38.71 -41.97)"/><path class="cls-5" d="M367.05,93.79c-1.23-2.54-6.52-5.73-8.61-1.06C358.74,95.29,364.2,96.83,367.05,93.79Z" transform="translate(-38.71 -41.97)"/><path class="cls-6" d="M359.68,94.36a2.47,2.47,0,0,0,3.39.75,2.43,2.43,0,0,0,.9-3.33,2.48,2.48,0,0,0-3.4-.75A2.43,2.43,0,0,0,359.68,94.36Z" transform="translate(-38.71 -41.97)"/><polygon class="cls-5" points="325.42 49.72 323.12 51.09 325.88 51.01 325.42 49.72"/><path class="cls-1" d="M358.44,92.73c2-4.25,6.79-2.21,8.61,1.06" transform="translate(-38.71 -41.97)"/><path class="cls-1" d="M357.1,91a1.5,1.5,0,0,0,1.25,1" transform="translate(-38.71 -41.97)"/><path class="cls-1" d="M371.93,88.72c-1.11,1.67-4.36,7.21-4.42,8.24-.07,1.37,1,2.27,2.69,2.8" transform="translate(-38.71 -41.97)"/><path class="cls-1" d="M367.54,86.4c-2.81-1.4-6.29-1.16-8.21.27" transform="translate(-38.71 -41.97)"/><path class="cls-1" d="M376.47,87.87A8.24,8.24,0,0,1,385,89.18" transform="translate(-38.71 -41.97)"/><path class="cls-6" d="M385.48,77.94a14.59,14.59,0,0,0-2.33,10.18,12.79,12.79,0,0,0,4.93,8.24,11.87,11.87,0,0,0,4.9,2.22c.94.18,1.34-1.27.4-1.45a11.11,11.11,0,0,1-8.08-6.75,12.78,12.78,0,0,1,1.48-11.69c.53-.8-.76-1.55-1.3-.75Z" transform="translate(-38.71 -41.97)"/></g><g id="Chest"><path id="Chest-2" data-name="Chest" class="cls-15" d="M354,127.6c4.58-.74,12-2,12-2-.38,7.7,9.43,10.62,22.07-.6,0,0,9.82,4.8,13.29,7.3,10,7.19,6.8,21.53,4,37.55-2.82,16.26-3.42,14.91-1.53,23.32,1.28,5.71,4.15,18.11,4.15,18.11-3.86,4.73-21.84,10.59-41.06,8.95-17.65-1.52-29-8.38-31.94-12.15,0,0,2.51-13.76,3.21-36.05-7.31-11.42-3.83-22.07,6.66-32.42" transform="translate(-38.71 -41.97)"/></g><path class="cls-4" d="M358.23,203.23l61.66-1.89s14.12,41.12,7.63,55.54c-3.11,6.9-62.53,11.69-70.59,2.61S358.23,203.23,358.23,203.23Z" transform="translate(-38.71 -41.97)"/><path class="cls-6" d="M365.89,213.43a209,209,0,0,0,0,22.25q.28,5.55.87,11.09c.36,3.41.69,6.9,2.1,10.07a10.93,10.93,0,0,0,6.69,6.29.75.75,0,0,0,.39-1.45c-6.26-1.8-7.11-9.5-7.68-14.91a212,212,0,0,1-1.16-21.23q0-6.06.31-12.11c.05-1-1.45-1-1.5,0Z" transform="translate(-38.71 -41.97)"/><path class="cls-6" d="M425.11,220.92c-15,.75-30.05,1.24-45.08,1.6l-13.18.29a.75.75,0,0,0,0,1.5c15-.32,30.07-.67,45.09-1.29q6.58-.27,13.17-.6c1,0,1-1.55,0-1.5Z" transform="translate(-38.71 -41.97)"/><path class="cls-4" d="M382.76,141.49s-17.19,27.94-15.3,62.68l-9.23-.94c2.31-16.37,1.17-47.82,20.84-68.21,7.06-7.32,22.77-7.54,29,4.8s11.79,61.52,11.79,61.52l-9.78.49s-.77-41.63-6.21-57.07S384.27,138.33,382.76,141.49Z" transform="translate(-38.71 -41.97)"/><g id="Arm"><path class="cls-17" d="M370,209.42c5.73-1.83,7.94-6.19,14.51-19.93,6.75-14.13,12-23.54,12.18-30.92s-1.91-13.71-8.16-17.94c0,0-9.18,4-18.83,24.68l-10.79,23.86Z" transform="translate(-38.71 -41.97)"/><path class="cls-15" d="M397.78,137.17c-5.25-2.72-13.47-1.95-18.25,5.66-3.21,5.1-15.08,29.85-15.08,29.85a28,28,0,0,0,10,9.43,50.29,50.29,0,0,0,14.08,4.2s6.82-12.85,9.47-19.08" transform="translate(-38.71 -41.97)"/><g id="Arm-2" data-name="Arm"><path class="cls-15" d="M325.92,180.13l-19.48-24.41a2.51,2.51,0,0,0-2.76-.82l-9.88,3.31a2.45,2.45,0,0,0-1.47,1.32c-.28.59-1,2.74-1.16,3.3a2.5,2.5,0,0,0,.47,2.37l20,23.92a2.51,2.51,0,0,0,2.66.8l9.32-2.82a2.51,2.51,0,0,0,1.63-3.26A2.52,2.52,0,0,0,325.92,180.13Z" transform="translate(-38.71 -41.97)"/><path class="cls-6" d="M292.77,161.2l9.88-3.31a2.51,2.51,0,0,1,2.77.82l19.48,24.41a2.52,2.52,0,0,1-1.25,4l-9.32,2.82a2.51,2.51,0,0,1-2.66-.8l-20-23.92A2.51,2.51,0,0,1,292.77,161.2Z" transform="translate(-38.71 -41.97)"/><path class="cls-17" d="M376.38,204.67c2.25-3.18-4.17-15-9.59-17.78-5.59-2.84-16.52-2.33-31.17-5.89a11.42,11.42,0,0,1-4.58-2.21,10.51,10.51,0,0,1-1.8-2.19c-1.1-1.92-2.56-3.23-4.87-5.12a12.13,12.13,0,0,0-6.24-2.3l2.38,3.08a25,25,0,0,1,1.76,2.18c.62.94.25,1.78-.32,1.95a6.21,6.21,0,0,1-2.61,0,21.48,21.48,0,0,1-6.73-2.75,31.92,31.92,0,0,1-4.5-3.63,6.82,6.82,0,0,0-1.36-1,2.46,2.46,0,0,0-1.65-.32,1.07,1.07,0,0,0-.72.42,1.4,1.4,0,0,0,0,1.2,12.35,12.35,0,0,0,2.44,3.8c1.13,1.33,2.32,2.6,3.56,3.83a17.38,17.38,0,0,1-4.18-2.14c-.47-.31-.93-.63-1.41-.92a3.87,3.87,0,0,0-1.41-.58,1.66,1.66,0,0,0-1.86,1.51,2.62,2.62,0,0,0,1,2.38c-1.44,1.5,0,3.62.34,4.09a19.89,19.89,0,0,0,6.38,5.5,12.2,12.2,0,0,1-3.05-1.2,4.66,4.66,0,0,0-2.71-.5c-.39.09-.88.38-.9.83a2.91,2.91,0,0,0,.84,1.78,9.12,9.12,0,0,0,1.94,1.77,11.61,11.61,0,0,0,2.59,1.27,35.55,35.55,0,0,0,4.07,1.27c3,.75,5.68.91,8.67,1.54,1.38.28,2.75.6,4.11.94,8.38,2.13,29.34,11.94,38.92,13.69C369.68,210.18,371.93,211,376.38,204.67Z" transform="translate(-38.71 -41.97)"/><path class="cls-1" d="M305.47,186c-2-.94-3.75.35-2.44,2.09a11.48,11.48,0,0,0,3.34,2.74c6.38,3,10,2.45,18.42,4.57s29.26,12.43,38.92,13.69" transform="translate(-38.71 -41.97)"/><path class="cls-1" d="M368.92,194.42c-1.23-3.67-4.51-8.23-8.09-9.55" transform="translate(-38.71 -41.97)"/><path class="cls-1" d="M301.94,177.6a27.79,27.79,0,0,0,11.9,6.6" transform="translate(-38.71 -41.97)"/><path class="cls-1" d="M314.21,179.89a25.39,25.39,0,0,1-7-4.26" transform="translate(-38.71 -41.97)"/><path class="cls-1" d="M312.07,188.39a30.82,30.82,0,0,1-6.6-2.39" transform="translate(-38.71 -41.97)"/></g></g></g></g><g id="Speech_Bubble" data-name="Speech Bubble"><g id="Speech_Bubble-2" data-name="Speech Bubble"><path id="Speech_Bubble-3" data-name="Speech Bubble" class="cls-15" d="M288.51,48.67c13.38-9.47,28.36-6.18,37.21-.16,9.64,6.56,19.61,24,4.71,40.1.63,3.39,3.8,5.69,6.46,6.33,1.35.33,0,1.91-4.48,2.1a16.82,16.82,0,0,1-10.71-3c-9.57,5.31-30,5-40.06-9.59C275.45,75.51,274.48,58.59,288.51,48.67Z" transform="translate(-38.71 -41.97)"/><path class="cls-7" d="M317.86,72a8,8,0,0,0-1.94-2.68,11.44,11.44,0,0,0-2.64-1.78,28.17,28.17,0,0,0-2.87-1.2c-1-.34-1.83-.66-2.63-1a7.83,7.83,0,0,1-1.95-1,1.77,1.77,0,0,1-.73-1.46,1.35,1.35,0,0,1,.76-1.26,4.15,4.15,0,0,1,2-.43,6.62,6.62,0,0,1,2.95.66c.18.09.36.18.54.29a3.47,3.47,0,0,0,4.27-.48l.19-.21a3.47,3.47,0,0,0-1-5.57c-.27-.13-.56-.25-.85-.36a16.2,16.2,0,0,0-3.69-.91v-4h-5.91v4.19a11.47,11.47,0,0,0-2.19.72,8.68,8.68,0,0,0-3.8,3.23,9.12,9.12,0,0,0-1.35,5,8.75,8.75,0,0,0,.74,3.78,7.83,7.83,0,0,0,1.94,2.57,12.74,12.74,0,0,0,2.64,1.75,25.14,25.14,0,0,0,2.86,1.23q1.44.5,2.64,1a7.45,7.45,0,0,1,1.94,1.09,1.94,1.94,0,0,1,.74,1.54,1.64,1.64,0,0,1-.84,1.46,4.89,4.89,0,0,1-2.53.53,8.63,8.63,0,0,1-3.76-.83,9,9,0,0,1-1.05-.57,3.69,3.69,0,0,0-3.87,6.28,12.26,12.26,0,0,0,1.55.75,15.7,15.7,0,0,0,4.34,1v3.91h5.91V85.16A11.35,11.35,0,0,0,315.45,83a8.59,8.59,0,0,0,3.15-7.11A9.26,9.26,0,0,0,317.86,72Z" transform="translate(-38.71 -41.97)"/></g></g></svg>